<?xml version="1.0" encoding="UTF-8" standalone="no"?>
<!-- Created with Inkscape (http://www.inkscape.org/) -->
<svg
   xmlns:dc="http://purl.org/dc/elements/1.1/"
   xmlns:cc="http://web.resource.org/cc/"
   xmlns:rdf="http://www.w3.org/1999/02/22-rdf-syntax-ns#"
   xmlns:svg="http://www.w3.org/2000/svg"
   xmlns="http://www.w3.org/2000/svg"
   xmlns:xlink="http://www.w3.org/1999/xlink"
   xmlns:sodipodi="http://sodipodi.sourceforge.net/DTD/sodipodi-0.dtd"
   xmlns:inkscape="http://www.inkscape.org/namespaces/inkscape"
   width="300"
   height="300"
   id="svg2"
   inkscape:label="Pozadí"
   sodipodi:version="0.32"
   inkscape:version="0.45.1"
   version="1.0"
   sodipodi:docname="star_highlight.svg"
   sodipodi:docbase="/home/luigi/Projects/hollo/trunk/media/log/images/icons"
   inkscape:output_extension="org.inkscape.output.svg.inkscape"
   inkscape:export-filename="/home/luigi/Projects/hollo/trunk/media/log/images/icons/star_gray.png"
   inkscape:export-xdpi="3.5999999"
   inkscape:export-ydpi="3.5999999">
  <defs
     id="defs3">
    <linearGradient
       id="linearGradient5070">
      <stop
         style="stop-color:#c8c8c8;stop-opacity:1;"
         offset="0"
         id="stop5072" />
      <stop
         style="stop-color:#ffffff;stop-opacity:0;"
         offset="1"
         id="stop5074" />
    </linearGradient>
    <linearGradient
       inkscape:collect="always"
       xlink:href="#linearGradient5070"
       id="linearGradient5076"
       x1="291.60095"
       y1="359.07648"
       x2="26.559168"
       y2="-40.092304"
       gradientUnits="userSpaceOnUse" />
  </defs>
  <sodipodi:namedview
     id="base"
     pagecolor="#ffffff"
     bordercolor="#666666"
     borderopacity="1.0"
     inkscape:pageopacity="0.0"
     inkscape:pageshadow="2"
     inkscape:zoom="0.70710678"
     inkscape:cx="150"
     inkscape:cy="150"
     inkscape:document-units="px"
     inkscape:current-layer="layer1"
     width="300px"
     height="300px"
     inkscape:window-width="1024"
     inkscape:window-height="695"
     inkscape:window-x="0"
     inkscape:window-y="24" />
  <metadata
     id="metadata6">
    <rdf:RDF>
      <cc:Work
         rdf:about="">
        <dc:format>image/svg+xml</dc:format>
        <dc:type
           rdf:resource="http://purl.org/dc/dcmitype/StillImage" />
      </cc:Work>
    </rdf:RDF>
  </metadata>
  <g
     inkscape:label="Vrstva 1"
     inkscape:groupmode="layer"
     id="layer1">
    <path
       sodipodi:type="star"
       style="fill:url(#linearGradient5076);fill-opacity:1;fill-rule:nonzero;stroke:#323232;stroke-width:20;stroke-miterlimit:4;stroke-dasharray:none;stroke-dashoffset:0;stroke-opacity:1"
       id="path2159"
       sodipodi:sides="5"
       sodipodi:cx="208.57143"
       sodipodi:cy="235.21933"
       sodipodi:r1="151.45552"
       sodipodi:r2="84.045997"
       sodipodi:arg1="0.94616091"
       sodipodi:arg2="1.5766321"
       inkscape:flatsided="false"
       inkscape:rounded="0"
       inkscape:randomized="0"
       d="M 297.14285,358.07647 L 208.08096,319.2639 L 119.09742,357.42071 L 128.48873,260.72406 L 64.702021,187.88679 L 159.56807,166.93756 L 209.12925,83.764836 L 258.36838,167.51414 L 352.78559,188.94784 L 288.351,261.65699 L 297.14285,358.07647 z "
       transform="translate(-57.142857,-71.428571)" />
    <path
       style="opacity:1;fill:#fff9f9;fill-opacity:0.13207547;fill-rule:evenodd;stroke:#000000;stroke-width:0;stroke-linecap:butt;stroke-linejoin:miter;stroke-miterlimit:4;stroke-dasharray:none;stroke-opacity:1"
       d="M 58.947221,188.48864 C 61.915091,185.67715 65.43934,193.64359 69.193431,195.42174 C 73.908076,197.65485 82.18848,198.19497 87.490232,198.19497 C 94.302273,198.19497 100.85122,199.58159 107.98265,199.58159 C 112.78284,199.58159 117.39956,198.56471 121.88823,197.50166 C 124.74994,196.82393 130.60243,192.87033 132.8663,191.26188 C 136.05674,188.99513 139.73234,187.38256 143.84438,186.40871 C 149.10048,185.16393 152.40022,183.02804 156.28622,181.55555 C 160.1167,180.10409 164.71228,179.73335 168.72803,178.78232 C 173.54577,177.64135 178.66543,177.81549 183.36546,176.70238 C 188.11799,175.57687 193.06765,175.79126 198.00292,174.62246 C 201.22141,173.86023 205.51836,173.92915 208.24912,173.92915 C 212.27627,173.92915 216.45312,173.23584 220.69094,173.23584 C 224.83822,173.23584 228.9855,173.23584 233.13278,173.23584 C 237.83077,173.23584 241.04522,174.62246 245.57459,174.62246 C 248.42531,174.62246 252.86799,175.81775 255.08893,177.3957 C 256.51676,178.41014 265.08187,168.93369 266.06701,167.68937 C 268.27474,164.90084 271.69579,161.66388 274.84949,158.67635 C 277.62516,156.04692 278.23181,152.91444 282.1682,151.04995 C 285.2258,149.60171 287.91889,147.02183 290.21879,144.11685 C 292.76033,140.90669 294.80576,137.69166 297.53751,135.10384 C 299.66129,133.09196 301.46666,130.43285 302.66062,128.17075 C 304.2545,125.15095 308.40527,122.72879 310.7112,120.54434 C 314.21705,117.22323 316.15341,114.00228 319.49367,110.83801 C 320.68919,109.7055 320.73394,109.27147 321.6893,108.06478 C 322.0183,107.75311 308.82595,106.57834 300.465,104.59824 C 296.63774,103.69183 291.78105,103.23495 288.75505,102.51831 C 282.82059,101.11286 276.61642,101.20349 270.45826,99.745069 C 265.2953,98.52234 259.19936,97.945293 255.08893,96.971833 C 250.28445,95.833998 246.13856,94.678809 241.18336,93.505293 C 237.20875,92.56399 234.24778,92.118675 230.20529,92.118675 C 226.47784,92.118675 222.27413,89.402011 219.22721,87.958815 C 216.24242,86.54506 212.54836,85.488661 210.44474,84.492269 C 208.17164,83.415605 206.72973,74.733217 204.58976,72.706012 C 201.98812,70.241451 200.5002,68.002771 198.73479,65.772922 C 196.5647,63.03194 195.4427,61.618141 194.34356,57.453211 C 193.43056,53.993689 191.31025,53.09289 189.95232,50.520119 C 188.51069,47.788765 186.42282,47.545635 185.56109,44.280337 C 184.72113,41.097557 183.03227,38.312995 181.16986,35.960627 C 179.0468,33.279024 179.00581,31.830667 176.04675,29.027536 C 173.01447,26.155036 171.88566,24.610414 170.19177,21.401135 C 168.37224,17.95382 168.29155,14.334398 166.53242,11.001498 C 164.76373,7.6504975 161.26758,6.5731148 159.21371,2.6817873 C 157.10529,-1.3128292 155.15931,-2.2815796 154.09059,-6.331232 C 153.91309,-7.0038406 154.09059,-7.7178502 154.09059,-8.4111593 C 152.8708,-13.03322 150.10346,0.33816254 148.23561,4.7617146 C 147.03924,7.5950562 146.08272,10.146324 145.30812,13.081425 C 144.79952,15.008648 140.91161,18.17238 139.45315,20.014517 C 137.21963,22.835631 135.58228,25.761362 132.8663,28.334226 C 130.74266,30.345971 129.3388,34.324186 127.74319,37.347245 C 126.01039,40.630243 124.94588,42.400453 124.08383,45.666956 C 123.03305,49.648604 120.65304,52.166991 118.96073,55.373284 C 117.48518,58.16889 113.60056,61.088184 110.91013,62.999685 C 107.91173,65.129998 105.15904,69.735968 103.59142,72.706012 C 101.68669,76.31473 99.56939,78.240097 98.468319,82.412341 C 98.212972,83.379868 97.456692,84.328978 97.004578,85.185578 C 96.746929,86.161857 83.486652,87.265506 81.635256,87.265506 C 78.68058,87.265506 75.228133,88.60956 72.120918,89.345433 C 68.600763,90.179102 65.451521,90.077836 62.606581,91.42536 C 59.387641,92.950029 56.127105,93.80108 53.824117,94.891911 C 51.077269,96.192961 45.408879,95.585215 42.114164,95.585215 C 38.514476,95.585215 34.993833,97.665148 31.136082,97.665148 C 27.844192,97.665148 23.324057,99.145221 20.158002,99.745069 C 16.605093,100.41821 12.609427,101.18613 9.9117929,101.825 C 5.9655724,102.75957 3.4334507,103.01259 -0.33441703,103.90492 C -4.0750516,104.79081 -7.4077132,105.06009 -11.312498,105.98486 C -13.150334,106.4201 -13.563063,106.83764 -14.971858,107.37147 C -19.04374,108.33581 -7.6935182,111.49307 -4.7256484,114.30457 C -2.1599531,116.73507 -0.28522472,118.52655 1.8611992,121.23766 C 4.4912935,124.55967 5.7280079,127.87048 7.7161766,131.63729 C 9.6770802,135.35246 13.612139,139.31546 15.766768,142.03693 C 18.30118,145.23809 19.295877,146.76671 22.353618,149.66334 C 25.422233,152.57026 26.351831,154.14419 29.672339,157.28973 C 32.44527,159.91655 33.120827,162.63644 35.527314,164.91614 C 37.971912,167.23193 39.864352,170.62526 41.382292,172.54253 C 43.717661,175.49229 46.950943,176.49896 50.164756,178.78232 C 52.794106,180.65042 53.638893,182.16112 56.751606,183.63548 C 58.520193,184.47318 58.947221,186.53409 58.947221,188.48864 z "
       id="path9317" />
  </g>
</svg>
