<?xml version="1.0" encoding="UTF-8" standalone="no"?>
<!-- Created with Inkscape (http://www.inkscape.org/) -->
<svg
   xmlns:dc="http://purl.org/dc/elements/1.1/"
   xmlns:cc="http://web.resource.org/cc/"
   xmlns:rdf="http://www.w3.org/1999/02/22-rdf-syntax-ns#"
   xmlns:svg="http://www.w3.org/2000/svg"
   xmlns="http://www.w3.org/2000/svg"
   xmlns:xlink="http://www.w3.org/1999/xlink"
   xmlns:sodipodi="http://sodipodi.sourceforge.net/DTD/sodipodi-0.dtd"
   xmlns:inkscape="http://www.inkscape.org/namespaces/inkscape"
   width="300"
   height="300"
   id="svg2"
   inkscape:label="Pozadí"
   sodipodi:version="0.32"
   inkscape:version="0.45.1"
   version="1.0"
   sodipodi:docname="star_red.svg"
   sodipodi:docbase="/home/luigi/Projects/hollo/trunk/media/log/images/icons"
   inkscape:output_extension="org.inkscape.output.svg.inkscape"
   inkscape:export-filename="/home/luigi/Projects/hollo/trunk/media/log/images/icons/star_red.png"
   inkscape:export-xdpi="3.5999999"
   inkscape:export-ydpi="3.5999999">
  <defs
     id="defs3">
    <linearGradient
       id="linearGradient5070">
      <stop
         style="stop-color:#cf0000;stop-opacity:1;"
         offset="0"
         id="stop5072" />
      <stop
         style="stop-color:#e33131;stop-opacity:0;"
         offset="1"
         id="stop5074" />
    </linearGradient>
    <linearGradient
       inkscape:collect="always"
       xlink:href="#linearGradient5070"
       id="linearGradient5076"
       x1="291.60095"
       y1="359.07648"
       x2="26.559168"
       y2="-40.092304"
       gradientUnits="userSpaceOnUse" />
  </defs>
  <sodipodi:namedview
     id="base"
     pagecolor="#ffffff"
     bordercolor="#666666"
     borderopacity="1.0"
     inkscape:pageopacity="0.0"
     inkscape:pageshadow="2"
     inkscape:zoom="0.70710678"
     inkscape:cx="150"
     inkscape:cy="150"
     inkscape:document-units="px"
     inkscape:current-layer="layer1"
     width="300px"
     height="300px"
     inkscape:window-width="1024"
     inkscape:window-height="695"
     inkscape:window-x="0"
     inkscape:window-y="24" />
  <metadata
     id="metadata6">
    <rdf:RDF>
      <cc:Work
         rdf:about="">
        <dc:format>image/svg+xml</dc:format>
        <dc:type
           rdf:resource="http://purl.org/dc/dcmitype/StillImage" />
      </cc:Work>
    </rdf:RDF>
  </metadata>
  <g
     inkscape:label="Vrstva 1"
     inkscape:groupmode="layer"
     id="layer1">
    <path
       sodipodi:type="star"
       style="fill:url(#linearGradient5076);fill-opacity:1;fill-rule:nonzero;stroke:#323232;stroke-width:20;stroke-miterlimit:4;stroke-dasharray:none;stroke-dashoffset:0;stroke-opacity:1"
       id="path2159"
       sodipodi:sides="5"
       sodipodi:cx="208.57143"
       sodipodi:cy="235.21933"
       sodipodi:r1="151.45552"
       sodipodi:r2="84.045997"
       sodipodi:arg1="0.94616091"
       sodipodi:arg2="1.5766321"
       inkscape:flatsided="false"
       inkscape:rounded="0"
       inkscape:randomized="0"
       d="M 297.14285,358.07647 L 208.08096,319.2639 L 119.09742,357.42071 L 128.48873,260.72406 L 64.702021,187.88679 L 159.56807,166.93756 L 209.12925,83.764836 L 258.36838,167.51414 L 352.78559,188.94784 L 288.351,261.65699 L 297.14285,358.07647 z "
       transform="translate(-57.142857,-71.428571)" />
    <path
       style="opacity:1;fill:#fff9f9;fill-opacity:0.13207547;fill-rule:evenodd;stroke:#000000;stroke-width:0;stroke-linecap:butt;stroke-linejoin:miter;stroke-miterlimit:4;stroke-dasharray:none;stroke-opacity:1"
       d="M 59.268792,188.56372 C 62.137184,185.77126 65.543307,193.68378 69.171567,195.44989 C 73.728186,197.66789 81.731045,198.20436 86.855092,198.20436 C 93.438805,198.20436 99.768248,199.58159 106.66063,199.58159 C 111.29994,199.58159 115.76191,198.57159 120.10012,197.51573 C 122.86592,196.84259 128.52224,192.91575 130.71023,191.31819 C 133.79374,189.06678 137.34614,187.46512 141.32036,186.49787 C 146.40027,185.26151 149.58941,183.14008 153.34515,181.67756 C 157.04724,180.23592 161.48879,179.86769 165.36994,178.92309 C 170.02619,177.78984 174.97425,177.9628 179.51675,176.85723 C 184.10998,175.73933 188.89374,175.95228 193.66358,174.79139 C 196.7742,174.03431 200.92712,174.10277 203.56635,174.10277 C 207.45852,174.10277 211.49537,173.41416 215.59116,173.41416 C 219.59942,173.41416 223.60768,173.41416 227.61595,173.41416 C 232.15647,173.41416 235.2632,174.79139 239.64074,174.79139 C 242.39591,174.79139 246.68968,175.97859 248.83619,177.54586 C 250.21614,178.55343 258.49418,169.14112 259.4463,167.90522 C 261.58003,165.13556 264.8864,161.92051 267.93439,158.9532 C 270.61703,156.34157 271.20334,153.23029 275.0078,151.37842 C 277.96291,149.93998 280.56573,147.37756 282.78855,144.49225 C 285.2449,141.30382 287.22177,138.11054 289.86196,135.54024 C 291.91455,133.54198 293.65941,130.90086 294.81336,128.65407 C 296.35381,125.65471 300.36545,123.24894 302.5941,121.07928 C 305.98243,117.78065 307.85389,114.5815 311.08219,111.43865 C 312.23763,110.3138 312.28089,109.8827 313.20422,108.68418 C 313.52219,108.37462 300.77203,107.2078 292.69133,105.2411 C 288.99234,104.34083 284.29844,103.88704 281.37386,103.17525 C 275.63832,101.77932 269.6421,101.86933 263.69035,100.42078 C 258.70045,99.206327 252.80883,98.633185 248.83619,97.666313 C 244.19273,96.53618 240.18582,95.388809 235.3967,94.223236 C 231.55531,93.288304 228.69359,92.846002 224.7866,92.846002 C 221.18408,92.846002 217.12128,90.147725 214.17647,88.714297 C 211.29174,87.310111 207.72149,86.260861 205.68839,85.271214 C 203.49147,84.201836 202.09789,75.578212 200.02964,73.564728 C 197.51521,71.116848 196.07716,68.893319 194.37092,66.678562 C 192.27358,63.956132 191.18918,62.551901 190.12688,58.415161 C 189.2445,54.979053 187.19525,54.08435 185.88283,51.528993 C 184.48952,48.816125 182.47163,48.57464 181.63879,45.331443 C 180.82698,42.170204 179.19472,39.404489 177.39474,37.068042 C 175.34284,34.404589 175.30322,32.966034 172.44336,30.181875 C 169.51271,27.328817 168.42174,25.794649 166.78461,22.607091 C 165.02608,19.183108 164.9481,15.588182 163.24793,12.27784 C 161.53851,8.9495202 158.15955,7.8794293 156.17452,4.0144391 C 154.13678,0.046858804 152.25602,-0.9153349 151.22312,-4.9375786 C 151.05157,-5.6056349 151.22312,-6.3148119 151.22312,-7.0034286 C 150.04421,-11.594207 147.36963,1.6866764 145.5644,6.0802891 C 144.40813,8.8944541 143.48367,11.428455 142.73504,14.34369 C 142.24348,16.257869 138.48587,19.400189 137.0763,21.229858 C 134.91764,24.031878 133.33517,26.937807 130.71023,29.493258 C 128.65777,31.491387 127.30097,35.442677 125.75884,38.445275 C 124.08412,41.706053 123.05529,43.464282 122.22214,46.708676 C 121.20659,50.663377 118.90635,53.164718 117.27076,56.349311 C 115.84467,59.125996 112.09026,62.025531 109.49001,63.924095 C 106.59211,66.039989 103.93167,70.614785 102.4166,73.564728 C 100.57571,77.149022 98.529375,79.061358 97.465212,83.205363 C 97.218423,84.166342 96.487498,85.109027 96.050534,85.95983 C 95.801521,86.929501 82.985706,88.02568 81.196364,88.02568 C 78.340724,88.02568 75.003997,89.360638 72.000931,90.09153 C 68.598765,90.919557 65.555081,90.818977 62.805497,92.15738 C 59.694451,93.67173 56.543202,94.517021 54.317406,95.600469 C 51.662628,96.892714 46.184232,96.28908 42.99995,96.28908 C 39.520918,96.28908 36.118281,98.354936 32.389834,98.354936 C 29.208281,98.354936 24.839655,99.824992 21.779719,100.42078 C 18.345898,101.08937 14.484159,101.85208 11.876945,102.48664 C 8.0629958,103.41487 5.6157457,103.66619 1.9741705,104.55248 C -1.6410846,105.43237 -4.8620412,105.69983 -8.6359438,106.61834 C -10.41218,107.05063 -10.811074,107.46535 -12.172649,107.99557 C -16.108049,108.95338 -5.1382667,112.08927 -2.2698746,114.88174 C 0.20982319,117.29579 2.021714,119.07514 4.0961935,121.7679 C 6.6381322,125.06743 7.8333934,128.35583 9.7549224,132.09715 C 11.6501,135.78717 15.453263,139.72335 17.535672,142.4264 C 19.985135,145.6059 20.946492,147.12417 23.901743,150.00119 C 26.867503,152.88844 27.765943,154.45171 30.975153,157.57597 C 33.655139,160.18501 34.308054,162.8865 36.63388,165.15076 C 38.99654,167.45087 40.825547,170.82124 42.292609,172.72553 C 44.549701,175.65533 47.674608,176.65519 50.7807,178.92309 C 53.32192,180.77855 54.138392,182.27903 57.14677,183.7434 C 58.856077,184.57544 59.268792,186.6224 59.268792,188.56372 z "
       id="path9317" />
  </g>
</svg>
