<?xml version="1.0" encoding="UTF-8" standalone="no"?>
<!-- Created with Inkscape (http://www.inkscape.org/) -->
<svg
   xmlns:dc="http://purl.org/dc/elements/1.1/"
   xmlns:cc="http://web.resource.org/cc/"
   xmlns:rdf="http://www.w3.org/1999/02/22-rdf-syntax-ns#"
   xmlns:svg="http://www.w3.org/2000/svg"
   xmlns="http://www.w3.org/2000/svg"
   xmlns:xlink="http://www.w3.org/1999/xlink"
   xmlns:sodipodi="http://sodipodi.sourceforge.net/DTD/sodipodi-0.dtd"
   xmlns:inkscape="http://www.inkscape.org/namespaces/inkscape"
   width="300"
   height="300"
   id="svg2"
   inkscape:label="Pozadí"
   sodipodi:version="0.32"
   inkscape:version="0.45"
   version="1.0"
   sodipodi:docname="star_gray.svg"
   sodipodi:docbase="/home/luigi/Projects/hollo/trunk/media/log/images/icons"
   inkscape:output_extension="org.inkscape.output.svg.inkscape"
   inkscape:export-filename="/home/luigi/Projects/hollo/trunk/media/log/images/icons/star_gray.png"
   inkscape:export-xdpi="4.8000002"
   inkscape:export-ydpi="4.8000002"
   sodipodi:modified="TRUE">
  <defs
     id="defs3">
    <linearGradient
       id="linearGradient5070">
      <stop
         style="stop-color:#c8c8c8;stop-opacity:1;"
         offset="0"
         id="stop5072" />
      <stop
         style="stop-color:#ffffff;stop-opacity:0;"
         offset="1"
         id="stop5074" />
    </linearGradient>
    <linearGradient
       inkscape:collect="always"
       xlink:href="#linearGradient5070"
       id="linearGradient5076"
       x1="291.60095"
       y1="359.07648"
       x2="26.559168"
       y2="-40.092304"
       gradientUnits="userSpaceOnUse" />
  </defs>
  <sodipodi:namedview
     id="base"
     pagecolor="#ffffff"
     bordercolor="#666666"
     borderopacity="1.0"
     inkscape:pageopacity="0.0"
     inkscape:pageshadow="2"
     inkscape:zoom="0.70710678"
     inkscape:cx="150"
     inkscape:cy="150"
     inkscape:document-units="px"
     inkscape:current-layer="layer1"
     width="300px"
     height="300px"
     inkscape:window-width="1024"
     inkscape:window-height="695"
     inkscape:window-x="0"
     inkscape:window-y="24" />
  <metadata
     id="metadata6">
    <rdf:RDF>
      <cc:Work
         rdf:about="">
        <dc:format>image/svg+xml</dc:format>
        <dc:type
           rdf:resource="http://purl.org/dc/dcmitype/StillImage" />
      </cc:Work>
    </rdf:RDF>
  </metadata>
  <g
     inkscape:label="Vrstva 1"
     inkscape:groupmode="layer"
     id="layer1">
    <path
       sodipodi:type="star"
       style="fill:url(#linearGradient5076);fill-opacity:1;fill-rule:nonzero;stroke:#666666;stroke-width:2;stroke-miterlimit:4;stroke-dasharray:none;stroke-dashoffset:0;stroke-opacity:1"
       id="path2159"
       sodipodi:sides="5"
       sodipodi:cx="208.57143"
       sodipodi:cy="235.21933"
       sodipodi:r1="151.45552"
       sodipodi:r2="84.045997"
       sodipodi:arg1="0.94616091"
       sodipodi:arg2="1.5766321"
       inkscape:flatsided="false"
       inkscape:rounded="0"
       inkscape:randomized="0"
       d="M 297.14285,358.07647 L 208.08096,319.2639 L 119.09742,357.42071 L 128.48873,260.72406 L 64.702021,187.88679 L 159.56807,166.93756 L 209.12925,83.764836 L 258.36838,167.51414 L 352.78559,188.94784 L 288.351,261.65699 L 297.14285,358.07647 z "
       transform="translate(-57.142857,-71.428571)" />
    <path
       style="fill:#fff9f9;fill-opacity:0.13207547;fill-rule:evenodd;stroke:#000000;stroke-width:0;stroke-linecap:butt;stroke-linejoin:miter;stroke-opacity:1;stroke-miterlimit:4;stroke-dasharray:none;opacity:1"
       d="M 70.920502,189.53975 C 73.465591,186.99466 76.487802,194.20624 79.707113,195.8159 C 83.750146,197.83742 90.850986,198.32636 95.39749,198.32636 C 101.23914,198.32636 106.85517,199.58159 112.97071,199.58159 C 117.0871,199.58159 121.04616,198.66106 124.8954,197.69874 C 127.34946,197.08523 132.36824,193.50625 134.30962,192.05021 C 137.04558,189.99824 140.19758,188.53847 143.72385,187.6569 C 148.2312,186.53007 151.06089,184.59656 154.39331,183.2636 C 157.67813,181.94967 161.61906,181.61406 165.06276,180.75314 C 169.1942,179.72028 173.58455,179.87792 177.61506,178.87029 C 181.69057,177.85142 185.93515,178.0455 190.16736,176.98745 C 192.92738,176.29744 196.61221,176.35983 198.95397,176.35983 C 202.40745,176.35983 205.9893,175.73222 209.62343,175.73222 C 213.17992,175.73222 216.7364,175.73222 220.29289,175.73222 C 224.32164,175.73222 227.07819,176.98745 230.96234,176.98745 C 233.40696,176.98745 237.21677,178.06948 239.12134,179.49791 C 240.34576,180.41623 247.69076,171.83771 248.53556,170.7113 C 250.42879,168.18699 253.3625,165.25675 256.06695,162.5523 C 258.44722,160.17202 258.96745,157.33636 262.3431,155.64854 C 264.96513,154.33752 267.27458,152.0021 269.24686,149.37238 C 271.42635,146.4664 273.1804,143.556 275.52301,141.21339 C 277.34425,139.39215 278.89244,136.985 279.91632,134.93724 C 281.28315,132.20358 284.84263,130.01093 286.82008,128.03347 C 289.82651,125.02705 291.48703,122.1113 294.35146,119.24686 C 295.37667,118.22166 295.41505,117.82875 296.23431,116.7364 C 296.51645,116.45426 285.20339,115.39081 278.03347,113.59833 C 274.75141,112.77781 270.58657,112.36422 267.99163,111.71548 C 262.90256,110.44321 257.58218,110.52525 252.30126,109.20502 C 247.87378,108.09815 242.64622,107.57578 239.12134,106.69456 C 235.00126,105.66454 231.44597,104.61881 227.19665,103.55649 C 223.78823,102.70438 221.24906,102.30126 217.78243,102.30126 C 214.58596,102.30126 210.98109,99.842012 208.3682,98.535565 C 205.80861,97.25577 202.64078,96.299469 200.83682,95.39749 C 198.88753,94.422844 197.65102,86.563151 195.8159,84.728033 C 193.58487,82.497 192.3089,80.470444 190.79498,78.451883 C 188.93403,75.970622 187.97186,74.690786 187.02929,70.920502 C 186.24636,67.788785 184.42809,66.97334 183.2636,64.644351 C 182.02733,62.171805 180.23688,61.951712 179.49791,58.995816 C 178.77761,56.114618 177.32932,53.593906 175.73222,51.464435 C 173.91159,49.036926 173.87644,47.725807 171.33891,45.188285 C 168.73859,42.587967 167.77058,41.189705 166.31799,38.284519 C 164.75766,35.163852 164.68846,31.887386 163.17992,28.870293 C 161.66318,25.836815 158.66507,24.861519 156.90377,21.338912 C 155.09571,17.722803 153.42694,16.845846 152.51046,13.179916 C 152.35824,12.57104 152.51046,11.924686 152.51046,11.297071 C 151.46443,7.1129706 149.0913,19.217356 147.48954,23.221757 C 146.46359,25.786627 145.64333,28.096151 144.97908,30.753138 C 144.54293,32.497748 141.20885,35.361703 139.95816,37.029289 C 138.04281,39.58309 136.6387,42.231595 134.30962,44.560669 C 132.4885,46.381792 131.28462,49.983054 129.91632,52.719665 C 128.43036,55.691584 127.51749,57.294059 126.77824,60.251046 C 125.87715,63.855416 123.83618,66.135174 122.38494,69.037657 C 121.11958,71.568367 117.78834,74.211045 115.48117,75.941423 C 112.9099,77.869879 110.54933,82.039413 109.20502,84.728033 C 107.57163,87.994809 105.75594,89.737739 104.81172,93.514644 C 104.59275,94.390494 103.9442,95.249671 103.55649,96.025105 C 103.33555,96.908877 91.96423,97.90795 90.376569,97.90795 C 87.842795,97.90795 84.882158,99.124649 82.217573,99.790795 C 79.198873,100.54547 76.498249,100.4538 74.058577,101.67364 C 71.298184,103.05384 68.502119,103.82425 66.527197,104.81172 C 64.171645,105.98949 59.310731,105.43933 56.485356,105.43933 C 53.398453,105.43933 50.379335,107.32218 47.07113,107.32218 C 44.248177,107.32218 40.371947,108.66201 37.656904,109.20502 C 34.610116,109.81438 31.183642,110.50953 28.870293,111.08787 C 25.486222,111.93388 23.314807,112.16293 20.083682,112.97071 C 16.87591,113.77265 14.017994,114.01642 10.669456,114.85356 C 9.0934238,115.24756 8.7394895,115.62554 7.5313808,116.10879 C 4.0395483,116.98175 13.772903,119.83985 16.317992,122.38494 C 18.518198,124.58514 20.125866,126.20687 21.966527,128.66109 C 24.221958,131.66833 25.282499,134.66542 26.987448,138.07531 C 28.669016,141.43845 32.043516,145.02594 33.891213,147.48954 C 36.064591,150.38738 36.917591,151.77115 39.539749,154.39331 C 42.171232,157.02479 42.968407,158.44958 45.8159,161.29707 C 48.19382,163.67499 48.773142,166.13716 50.83682,168.20084 C 52.933179,170.2972 54.556035,173.369 55.857741,175.1046 C 57.860431,177.77486 60.633124,178.68614 63.389121,180.75314 C 65.643914,182.44423 66.368359,183.81179 69.037657,185.14644 C 70.554305,185.90477 70.920502,187.7704 70.920502,189.53975 z "
       id="path9317" />
  </g>
</svg>
