<?xml version="1.0" encoding="UTF-8" standalone="no"?>
<!-- Created with Inkscape (http://www.inkscape.org/) -->
<svg
   xmlns:dc="http://purl.org/dc/elements/1.1/"
   xmlns:cc="http://web.resource.org/cc/"
   xmlns:rdf="http://www.w3.org/1999/02/22-rdf-syntax-ns#"
   xmlns:svg="http://www.w3.org/2000/svg"
   xmlns="http://www.w3.org/2000/svg"
   xmlns:xlink="http://www.w3.org/1999/xlink"
   xmlns:sodipodi="http://sodipodi.sourceforge.net/DTD/sodipodi-0.dtd"
   xmlns:inkscape="http://www.inkscape.org/namespaces/inkscape"
   width="300"
   height="300"
   id="svg2"
   inkscape:label="Pozadí"
   sodipodi:version="0.32"
   inkscape:version="0.45.1"
   version="1.0"
   sodipodi:docname="star.svg"
   sodipodi:docbase="/home/luigi/Projects/hollo/trunk/media/log/images/icons"
   inkscape:output_extension="org.inkscape.output.svg.inkscape"
   inkscape:export-filename="/home/luigi/Projects/hollo/trunk/media/log/images/icons/star_yellow.png"
   inkscape:export-xdpi="3.5999999"
   inkscape:export-ydpi="3.5999999">
  <defs
     id="defs3">
    <linearGradient
       id="linearGradient5070">
      <stop
         style="stop-color:#e1b900;stop-opacity:1;"
         offset="0"
         id="stop5072" />
      <stop
         style="stop-color:#ffff00;stop-opacity:0;"
         offset="1"
         id="stop5074" />
    </linearGradient>
    <linearGradient
       inkscape:collect="always"
       xlink:href="#linearGradient5070"
       id="linearGradient5076"
       x1="291.60095"
       y1="359.07648"
       x2="26.559168"
       y2="-40.092304"
       gradientUnits="userSpaceOnUse" />
  </defs>
  <sodipodi:namedview
     id="base"
     pagecolor="#ffffff"
     bordercolor="#666666"
     borderopacity="1.0"
     inkscape:pageopacity="0.0"
     inkscape:pageshadow="2"
     inkscape:zoom="0.70710678"
     inkscape:cx="150"
     inkscape:cy="150"
     inkscape:document-units="px"
     inkscape:current-layer="layer1"
     width="300px"
     height="300px"
     inkscape:window-width="1024"
     inkscape:window-height="695"
     inkscape:window-x="0"
     inkscape:window-y="24" />
  <metadata
     id="metadata6">
    <rdf:RDF>
      <cc:Work
         rdf:about="">
        <dc:format>image/svg+xml</dc:format>
        <dc:type
           rdf:resource="http://purl.org/dc/dcmitype/StillImage" />
      </cc:Work>
    </rdf:RDF>
  </metadata>
  <g
     inkscape:label="Vrstva 1"
     inkscape:groupmode="layer"
     id="layer1">
    <path
       sodipodi:type="star"
       style="fill:url(#linearGradient5076);fill-opacity:1;fill-rule:nonzero;stroke:#323232;stroke-width:20;stroke-miterlimit:4;stroke-dasharray:none;stroke-dashoffset:0;stroke-opacity:1"
       id="path2159"
       sodipodi:sides="5"
       sodipodi:cx="208.57143"
       sodipodi:cy="235.21933"
       sodipodi:r1="151.45552"
       sodipodi:r2="84.045997"
       sodipodi:arg1="0.94616091"
       sodipodi:arg2="1.5766321"
       inkscape:flatsided="false"
       inkscape:rounded="0"
       inkscape:randomized="0"
       d="M 297.14285,358.07647 L 208.08096,319.2639 L 119.09742,357.42071 L 128.48873,260.72406 L 64.702021,187.88679 L 159.56807,166.93756 L 209.12925,83.764836 L 258.36838,167.51414 L 352.78559,188.94784 L 288.351,261.65699 L 297.14285,358.07647 z "
       transform="translate(-57.142857,-71.428571)" />
    <path
       style="opacity:1;fill:#fff9f9;fill-opacity:0.13207547;fill-rule:evenodd;stroke:#000000;stroke-width:0;stroke-linecap:butt;stroke-linejoin:miter;stroke-miterlimit:4;stroke-dasharray:none;stroke-opacity:1"
       d="M 54.696366,188.41357 C 57.776147,185.58305 61.433289,193.6034 65.328938,195.39358 C 70.221366,197.64181 78.814006,198.18559 84.315678,198.18559 C 91.38459,198.18559 98.18048,199.58159 105.58083,199.58159 C 110.56202,199.58159 115.35282,198.55782 120.01075,197.48758 C 122.98038,196.80527 129.05354,192.82491 131.40279,191.20557 C 134.71353,188.92347 138.52773,187.29999 142.79483,186.31956 C 148.24912,185.06635 151.6733,182.916 155.70582,181.43355 C 159.68074,179.97226 164.44961,179.59902 168.6168,178.64154 C 173.6162,177.49285 178.92891,177.66817 183.80618,176.54753 C 188.73791,175.4144 193.87422,175.63024 198.99557,174.45353 C 202.33544,173.68614 206.79441,173.75553 209.62813,173.75553 C 213.80716,173.75553 218.14151,173.05753 222.53913,173.05753 C 226.84279,173.05753 231.14645,173.05753 235.45011,173.05753 C 240.32526,173.05753 243.66093,174.45353 248.36109,174.45353 C 251.3193,174.45353 255.92949,175.65691 258.2342,177.24554 C 259.71585,178.26685 268.60394,168.72626 269.62623,167.47352 C 271.91721,164.66611 275.46726,161.40725 278.73988,158.39949 C 281.62021,155.75227 282.24973,152.59859 286.33457,150.72148 C 289.50747,149.26343 292.3021,146.6661 294.68874,143.74146 C 297.32611,140.50957 299.44865,137.27277 302.28343,134.66744 C 304.48729,132.64195 306.36073,129.96484 307.59972,127.68743 C 309.25371,124.64719 313.56099,122.20864 315.95387,120.0094 C 319.59192,116.66582 321.6013,113.42307 325.0675,110.23738 C 326.30811,109.09721 326.35454,108.66023 327.34593,107.44538 C 327.68733,107.1316 313.99753,105.94888 305.3213,103.95537 C 301.34972,103.04283 296.30989,102.58286 293.16979,101.86136 C 287.01157,100.44641 280.57343,100.53765 274.18307,99.069359 C 268.82542,97.838354 262.49961,97.257401 258.2342,96.277352 C 253.24854,95.131817 248.94632,93.968809 243.80427,92.78735 C 239.67979,91.839677 236.60717,91.391347 232.41224,91.391347 C 228.54422,91.391347 224.18202,88.656297 221.02019,87.203333 C 217.92286,85.78001 214.08951,84.71646 211.90656,83.713325 C 209.54775,82.629373 208.05146,73.888222 205.8308,71.847297 C 203.13105,69.366055 201.58702,67.112222 199.75504,64.867281 C 197.50314,62.107749 196.33881,60.68438 195.19823,56.491262 C 194.25081,53.008325 192.05054,52.101429 190.64141,49.511246 C 189.14541,46.761405 186.97882,46.516629 186.0846,43.229232 C 185.21297,40.02491 183.46041,37.221502 181.52777,34.853212 C 179.32466,32.15346 179.28212,30.6953 176.21149,27.873197 C 173.06487,24.981255 171.89349,23.426179 170.13573,20.195179 C 168.24759,16.724532 168.16385,13.080613 166.33838,9.725155 C 164.503,6.3514749 160.87502,5.2668002 158.74369,1.3491356 C 156.55579,-2.6725172 154.53643,-3.6478243 153.4274,-7.7248854 C 153.24319,-8.4020464 153.4274,-9.1208885 153.4274,-9.81889 C 152.16161,-14.472234 149.28992,-1.0103513 147.35164,3.4431401 C 146.11016,6.2956583 145.11757,8.8641936 144.31377,11.81916 C 143.78599,13.759426 139.75146,16.944572 138.23801,18.799176 C 135.92028,21.639384 134.22117,24.584917 131.40279,27.175194 C 129.19907,29.200555 127.74226,33.205696 126.0865,36.249215 C 124.28836,39.554433 123.1837,41.336624 122.28915,44.625235 C 121.19875,48.633832 118.729,51.169263 116.97288,54.397257 C 115.44168,57.211785 111.41058,60.150837 108.6187,62.075275 C 105.50724,64.220006 102.65074,68.85715 101.024,71.847297 C 99.047462,75.480439 96.850315,77.418837 95.707725,81.619319 C 95.442753,82.593395 94.657949,83.548928 94.188787,84.411326 C 93.92143,85.394213 80.161131,86.505331 78.239921,86.505331 C 75.173831,86.505331 71.591199,87.858482 68.366818,88.599336 C 64.713924,89.438647 61.44593,89.336696 58.493712,90.69334 C 55.153394,92.228329 51.769909,93.085139 49.380079,94.183353 C 46.529654,95.493209 40.647519,94.881349 37.228568,94.881349 C 33.493143,94.881349 29.839743,96.97536 25.836525,96.97536 C 22.420503,96.97536 17.729923,98.46545 14.444482,99.069359 C 10.7576,99.747058 6.6112647,100.52017 3.8119088,101.16337 C -0.28311535,102.10426 -2.9107189,102.359 -6.8206649,103.25737 C -10.702352,104.14924 -14.160681,104.42035 -18.212708,105.35138 C -20.119846,105.78956 -20.548137,106.20993 -22.010055,106.74738 C -26.23548,107.71824 -14.457263,110.89688 -11.377481,113.7274 C -8.7150381,116.17435 -6.7696177,117.97795 -4.542256,120.70741 C -1.8129867,124.05191 -0.5296381,127.38512 1.5335003,131.17743 C 3.5683456,134.91774 7.6517881,138.90757 9.8876639,141.64746 C 12.517643,144.87029 13.549848,146.40925 16.722891,149.32548 C 19.907217,152.25208 20.871869,153.83666 24.317586,157.00349 C 27.195078,159.64809 27.896109,162.38639 30.393342,164.68151 C 32.930121,167.01298 34.893918,170.42928 36.469098,172.35952 C 38.89253,175.32925 42.247732,176.34273 45.582731,178.64154 C 48.31123,180.52229 49.187872,182.04322 52.417958,183.52755 C 54.253236,184.37093 54.696366,186.44578 54.696366,188.41357 z "
       id="path9317" />
  </g>
</svg>
