<?xml version="1.0" encoding="UTF-8" standalone="no"?>
<!-- Created with Inkscape (http://www.inkscape.org/) -->
<svg
   xmlns:svg="http://www.w3.org/2000/svg"
   xmlns="http://www.w3.org/2000/svg"
   version="1.0"
   width="744.09448"
   height="1052.3622"
   id="svg2">
  <defs
     id="defs3" />
  <g
     id="layer1">
    <path
       d="M 305.71428,226.6479 L 334.53393,250.45766 L 298.10176,251.02268 L 319.04603,281.98742 L 283.93043,272.26542 L 295.30254,307.87655 L 264.34838,288.65516 L 265.22702,326.02767 L 240.94201,298.86409 L 231.256,334.9703 L 215.60757,302.06515 L 196.14162,333.97994 L 190.39751,297.99901 L 162.72864,323.13684 L 167.35421,286.99508 L 133.72397,303.31943 L 148.34448,269.94484 L 111.4774,276.13321 L 134.90839,248.2296 L 97.791222,243.78064 L 128.13444,223.60859 L 93.7742,208.88273 L 128.57143,198.07646 L 99.751774,174.2667 L 136.18395,173.70168 L 115.23967,142.73695 L 150.35527,152.45894 L 138.98316,116.84782 L 169.93733,136.06921 L 169.05869,98.696691 L 193.3437,125.86028 L 203.0297,89.754067 L 218.67814,122.65922 L 238.14408,90.744423 L 243.88819,126.72536 L 271.55707,101.58753 L 266.9315,137.72928 L 300.56174,121.40493 L 285.94123,154.77952 L 322.8083,148.59116 L 299.37732,176.49477 L 336.49448,180.94373 L 306.15126,201.11578 L 340.51151,215.84164 L 305.71428,226.6479 z "
       style="fill:white;fill-opacity:1;fill-rule:nonzero;stroke:black;stroke-width:0.60000002;stroke-miterlimit:4;stroke-dasharray:none;stroke-dashoffset:0;stroke-opacity:1"
       id="path1871" />
  </g>
</svg>
